<svg xmlns="http://www.w3.org/2000/svg" width="512" height="512" viewBox="0 0 512 512">
  <defs>
    <linearGradient id="grad" x1="0%" y1="0%" x2="100%" y2="100%">
      <stop offset="0%" style="stop-color:#0056b3;stop-opacity:1" />
      <stop offset="100%" style="stop-color:#48a0ff;stop-opacity:1" />
    </linearGradient>
  </defs>
  <rect width="512" height="512" rx="100" fill="url(#grad)"/>
  <g fill="white" transform="translate(100,100) scale(0.65)">
    <!-- Snowflake icon -->
    <path d="M440.1 355.2l-39.2-23 34.1-9.3c8.4-2.3 13.4-11.1 11.1-19.6l-4.1-15.5c-2.2-8.5-10.9-13.6-19.3-11.3L346 298.2 271 249.5v-47.4l75-48.6 76.7 22.6c8.4 2.5 17.2-2.3 19.8-10.8l4.1-15.5c2.5-8.5-2.3-17.3-10.7-19.7l-34.1-9.3 39.2-23c7.5-4.4 10.1-14.2 5.8-21.9l-7.9-13.9c-4.3-7.7-14-10.3-21.5-5.9l-39.2 23 9.1-34.7c2.2-8.5-2.7-17.3-11.1-19.6l-15.2-4.1c-8.4-2.3-17.1 2.8-19.3 11.3l-22 76.5-75 48.6-75-48.6-22-76.5c-2.2-8.4-10.9-13.6-19.3-11.3l-15.2 4.1c-8.4 2.3-13.4 11.1-11.1 19.6l9.1 34.7-39.2-23c-7.5-4.4-17.1-1.8-21.5 5.9l-7.9 13.9c-4.3 7.7-1.8 17.4 5.8 21.9l39.2 23-34.1 9.3c-8.4 2.3-13.2 11.1-10.7 19.7l4.1 15.5c2.5 8.5 11.3 13.2 19.8 10.8l76.7-22.6 75 48.6v47.4l-75 48.6-76.7-22.6c-8.5-2.5-17.3 2.8-19.8 11.3l-4.1 15.5c-2.5 8.5 2.3 17.3 10.7 19.6l34.1 9.3-39.2 23c-7.5 4.3-10.1 14-5.8 21.8l7.9 13.9c4.3 7.7 14 10.3 21.5 5.9l39.2-22.9-9.1 34.6c-2.2 8.5 2.7 17.3 11.1 19.6l15.2 4.2c8.4 2.3 17.1-2.9 19.3-11.4l22-76.5 75-48.5 75 48.5 22 76.5c2.2 8.5 10.9 13.6 19.3 11.4l15.2-4.2c8.4-2.3 13.4-11.1 11.1-19.6l-9.1-34.6 39.2 22.9c7.5 4.3 17.2 1.8 21.5-5.9l7.9-13.9c4.3-7.7 1.7-17.4-5.8-21.8zM224 280c-13.3 0-24-10.7-24-24s10.7-24 24-24 24 10.7 24 24-10.7 24-24 24z"/>
  </g>
</svg>